<mxfile host="app.diagrams.net" agent="Mozilla/5.0 (Windows NT 10.0; Win64; x64) AppleWebKit/537.36 (KHTML, like Gecko) Chrome/141.0.0.0 Safari/537.36" version="28.2.5">
  <diagram name="Página-1" id="tSvNxVfXGZo-txXaCuXj">
    <mxGraphModel dx="1106" dy="597" grid="1" gridSize="10" guides="1" tooltips="1" connect="1" arrows="1" fold="1" page="1" pageScale="1" pageWidth="827" pageHeight="1169" math="0" shadow="0" adaptiveColors="simple">
      <root>
        <mxCell id="0" />
        <mxCell id="1" parent="0" />
        <mxCell id="-fS9qOMYzr-xpj3dif4j-1" value="Sarah" style="shape=umlActor;verticalLabelPosition=bottom;verticalAlign=top;html=1;fontStyle=1;labelBackgroundColor=none;" vertex="1" parent="1">
          <mxGeometry x="60" y="250" width="30" height="60" as="geometry" />
        </mxCell>
        <mxCell id="-fS9qOMYzr-xpj3dif4j-14" value="" style="swimlane;startSize=0;labelBackgroundColor=none;" vertex="1" parent="1">
          <mxGeometry x="230" y="50" width="430" height="550" as="geometry">
            <mxRectangle x="200" y="80" width="50" height="40" as="alternateBounds" />
          </mxGeometry>
        </mxCell>
        <mxCell id="-fS9qOMYzr-xpj3dif4j-30" value="" style="endArrow=none;html=1;rounded=0;entryX=-0.02;entryY=0.35;entryDx=0;entryDy=0;entryPerimeter=0;labelBackgroundColor=none;fontColor=default;" edge="1" parent="-fS9qOMYzr-xpj3dif4j-14" target="-fS9qOMYzr-xpj3dif4j-4">
          <mxGeometry width="50" height="50" relative="1" as="geometry">
            <mxPoint x="-140" y="220" as="sourcePoint" />
            <mxPoint x="70" y="290" as="targetPoint" />
          </mxGeometry>
        </mxCell>
        <mxCell id="-fS9qOMYzr-xpj3dif4j-29" value="" style="endArrow=none;html=1;rounded=0;entryX=0;entryY=0.5;entryDx=0;entryDy=0;entryPerimeter=0;labelBackgroundColor=none;fontColor=default;" edge="1" parent="-fS9qOMYzr-xpj3dif4j-14" target="-fS9qOMYzr-xpj3dif4j-3">
          <mxGeometry width="50" height="50" relative="1" as="geometry">
            <mxPoint x="-140" y="220" as="sourcePoint" />
            <mxPoint x="60" y="155" as="targetPoint" />
          </mxGeometry>
        </mxCell>
        <mxCell id="-fS9qOMYzr-xpj3dif4j-3" value="pagar estacionamento" style="strokeWidth=2;html=1;shape=mxgraph.flowchart.start_1;whiteSpace=wrap;align=center;labelBackgroundColor=none;" vertex="1" parent="-fS9qOMYzr-xpj3dif4j-14">
          <mxGeometry x="57.5" y="180" width="100" height="60" as="geometry" />
        </mxCell>
        <mxCell id="-fS9qOMYzr-xpj3dif4j-2" value="sair do estacionamento" style="strokeWidth=2;html=1;shape=mxgraph.flowchart.start_1;whiteSpace=wrap;align=center;labelBackgroundColor=none;" vertex="1" parent="-fS9qOMYzr-xpj3dif4j-14">
          <mxGeometry x="57.5" y="100" width="100" height="60" as="geometry" />
        </mxCell>
        <mxCell id="-fS9qOMYzr-xpj3dif4j-4" value="pagar com cupom" style="strokeWidth=2;html=1;shape=mxgraph.flowchart.start_1;whiteSpace=wrap;align=center;labelBackgroundColor=none;" vertex="1" parent="-fS9qOMYzr-xpj3dif4j-14">
          <mxGeometry x="57.5" y="260" width="100" height="60" as="geometry" />
        </mxCell>
        <mxCell id="-fS9qOMYzr-xpj3dif4j-32" value="pagar com cartão" style="ellipse;whiteSpace=wrap;html=1;labelBackgroundColor=none;" vertex="1" parent="-fS9qOMYzr-xpj3dif4j-14">
          <mxGeometry x="250" y="160" width="110" height="60" as="geometry" />
        </mxCell>
        <mxCell id="-fS9qOMYzr-xpj3dif4j-33" value="pagar com pix" style="ellipse;whiteSpace=wrap;html=1;labelBackgroundColor=none;" vertex="1" parent="-fS9qOMYzr-xpj3dif4j-14">
          <mxGeometry x="255" y="230" width="100" height="60" as="geometry" />
        </mxCell>
        <mxCell id="-fS9qOMYzr-xpj3dif4j-37" value="" style="endArrow=none;html=1;rounded=0;sketch=1;hachureGap=4;jiggle=2;curveFitting=1;fontFamily=Architects Daughter;fontSource=https%3A%2F%2Ffonts.googleapis.com%2Fcss%3Ffamily%3DArchitects%2BDaughter;startArrow=block;startFill=0;exitX=0.96;exitY=0.65;exitDx=0;exitDy=0;exitPerimeter=0;labelBackgroundColor=none;fontColor=default;" edge="1" parent="-fS9qOMYzr-xpj3dif4j-14" source="-fS9qOMYzr-xpj3dif4j-3" target="-fS9qOMYzr-xpj3dif4j-32">
          <mxGeometry width="50" height="50" relative="1" as="geometry">
            <mxPoint x="200" y="285" as="sourcePoint" />
            <mxPoint x="250" y="235" as="targetPoint" />
          </mxGeometry>
        </mxCell>
        <mxCell id="-fS9qOMYzr-xpj3dif4j-39" value="" style="endArrow=none;html=1;rounded=0;sketch=1;hachureGap=4;jiggle=2;curveFitting=1;fontFamily=Architects Daughter;fontSource=https%3A%2F%2Ffonts.googleapis.com%2Fcss%3Ffamily%3DArchitects%2BDaughter;startArrow=block;startFill=0;exitX=0.94;exitY=0.733;exitDx=0;exitDy=0;exitPerimeter=0;labelBackgroundColor=none;fontColor=default;flowAnimation=0;entryX=0.04;entryY=0.383;entryDx=0;entryDy=0;entryPerimeter=0;" edge="1" parent="-fS9qOMYzr-xpj3dif4j-14" source="-fS9qOMYzr-xpj3dif4j-3" target="-fS9qOMYzr-xpj3dif4j-33">
          <mxGeometry width="50" height="50" relative="1" as="geometry">
            <mxPoint x="220" y="350" as="sourcePoint" />
            <mxPoint x="270" y="300" as="targetPoint" />
          </mxGeometry>
        </mxCell>
        <mxCell id="-fS9qOMYzr-xpj3dif4j-42" value="&lt;font face=&quot;Helvetica&quot;&gt;solicitar recibo&lt;/font&gt;" style="ellipse;whiteSpace=wrap;sketch=1;hachureGap=4;jiggle=2;curveFitting=1;fontFamily=Architects Daughter;fontSource=https%3A%2F%2Ffonts.googleapis.com%2Fcss%3Ffamily%3DArchitects%2BDaughter;html=1;align=center;" vertex="1" parent="-fS9qOMYzr-xpj3dif4j-14">
          <mxGeometry x="30" y="370" width="110" height="70" as="geometry" />
        </mxCell>
        <mxCell id="-fS9qOMYzr-xpj3dif4j-41" value="&lt;font face=&quot;Helvetica&quot;&gt;processar pagamento&lt;/font&gt;" style="ellipse;whiteSpace=wrap;html=1;sketch=1;hachureGap=4;jiggle=2;curveFitting=1;fontFamily=Architects Daughter;fontSource=https%3A%2F%2Ffonts.googleapis.com%2Fcss%3Ffamily%3DArchitects%2BDaughter;" vertex="1" parent="-fS9qOMYzr-xpj3dif4j-14">
          <mxGeometry x="157.5" y="330" width="115" height="80" as="geometry" />
        </mxCell>
        <mxCell id="-fS9qOMYzr-xpj3dif4j-40" value="&lt;font face=&quot;Helvetica&quot;&gt;usar cupom&lt;/font&gt;" style="ellipse;whiteSpace=wrap;html=1;sketch=1;hachureGap=4;jiggle=2;curveFitting=1;fontFamily=Architects Daughter;fontSource=https%3A%2F%2Ffonts.googleapis.com%2Fcss%3Ffamily%3DArchitects%2BDaughter;" vertex="1" parent="-fS9qOMYzr-xpj3dif4j-14">
          <mxGeometry x="290" y="370" width="110" height="70" as="geometry" />
        </mxCell>
        <mxCell id="-fS9qOMYzr-xpj3dif4j-46" value="entrar no estacionamento" style="ellipse;whiteSpace=wrap;html=1;sketch=1;hachureGap=4;jiggle=2;curveFitting=1;fontFamily=Architects Daughter;fontSource=https%3A%2F%2Ffonts.googleapis.com%2Fcss%3Ffamily%3DArchitects%2BDaughter;" vertex="1" parent="-fS9qOMYzr-xpj3dif4j-14">
          <mxGeometry x="110" y="10" width="110" height="70" as="geometry" />
        </mxCell>
        <mxCell id="-fS9qOMYzr-xpj3dif4j-45" value="" style="ellipse;whiteSpace=wrap;html=1;sketch=1;hachureGap=4;jiggle=2;curveFitting=1;fontFamily=Architects Daughter;fontSource=https%3A%2F%2Ffonts.googleapis.com%2Fcss%3Ffamily%3DArchitects%2BDaughter;" vertex="1" parent="-fS9qOMYzr-xpj3dif4j-14">
          <mxGeometry x="272.5" y="40" width="120" height="80" as="geometry" />
        </mxCell>
        <mxCell id="-fS9qOMYzr-xpj3dif4j-44" value="" style="ellipse;whiteSpace=wrap;html=1;sketch=1;hachureGap=4;jiggle=2;curveFitting=1;fontFamily=Architects Daughter;fontSource=https%3A%2F%2Ffonts.googleapis.com%2Fcss%3Ffamily%3DArchitects%2BDaughter;" vertex="1" parent="-fS9qOMYzr-xpj3dif4j-14">
          <mxGeometry x="155" y="430" width="120" height="80" as="geometry" />
        </mxCell>
        <mxCell id="-fS9qOMYzr-xpj3dif4j-16" value="" style="endArrow=none;html=1;rounded=0;entryX=0;entryY=0.5;entryDx=0;entryDy=0;entryPerimeter=0;labelBackgroundColor=none;fontColor=default;" edge="1" parent="1" source="-fS9qOMYzr-xpj3dif4j-1" target="-fS9qOMYzr-xpj3dif4j-2">
          <mxGeometry width="50" height="50" relative="1" as="geometry">
            <mxPoint x="180" y="240" as="sourcePoint" />
            <mxPoint x="190" y="80" as="targetPoint" />
          </mxGeometry>
        </mxCell>
      </root>
    </mxGraphModel>
  </diagram>
</mxfile>
